<svg xmlns="http://www.w3.org/2000/svg" viewBox="0 0 800 520" role="img" aria-label="Render de obra SPX"><defs><linearGradient id="g4" x1="0" y1="0" x2=".7" y2="1"><stop offset="0" stop-color="#40202D"/><stop offset="1" stop-color="#22111A"/></linearGradient><linearGradient id="l4" x1="0" y1="0" x2="0" y2="1"><stop offset="0" stop-color="#B0637E" stop-opacity=".55"/><stop offset="1" stop-color="#B0637E" stop-opacity="0"/></linearGradient><pattern id="h4" width="10" height="10" patternTransform="rotate(25)" patternUnits="userSpaceOnUse"><line x1="0" y1="0" x2="0" y2="10" stroke="#ffffff" stroke-opacity=".045" stroke-width="3.2"/></pattern></defs><rect width="800" height="520" fill="url(#g4)"/><rect x="68" y="92" width="232" height="200" fill="url(#l4)"/><line x1="126" y1="92" x2="126" y2="292" stroke="#B0637E" stroke-opacity=".28" stroke-width="1.4"/><line x1="184" y1="92" x2="184" y2="292" stroke="#B0637E" stroke-opacity=".28" stroke-width="1.4"/><line x1="242" y1="92" x2="242" y2="292" stroke="#B0637E" stroke-opacity=".28" stroke-width="1.4"/><line x1="-576" y1="520" x2="324" y2="278" stroke="#ffffff" stroke-opacity=".07" stroke-width="1"/><line x1="-480" y1="520" x2="324" y2="278" stroke="#ffffff" stroke-opacity=".07" stroke-width="1"/><line x1="-384" y1="520" x2="324" y2="278" stroke="#ffffff" stroke-opacity=".07" stroke-width="1"/><line x1="-288" y1="520" x2="324" y2="278" stroke="#ffffff" stroke-opacity=".07" stroke-width="1"/><line x1="-192" y1="520" x2="324" y2="278" stroke="#ffffff" stroke-opacity=".07" stroke-width="1"/><line x1="-96" y1="520" x2="324" y2="278" stroke="#ffffff" stroke-opacity=".07" stroke-width="1"/><line x1="0" y1="520" x2="324" y2="278" stroke="#ffffff" stroke-opacity=".07" stroke-width="1"/><line x1="96" y1="520" x2="324" y2="278" stroke="#ffffff" stroke-opacity=".07" stroke-width="1"/><line x1="192" y1="520" x2="324" y2="278" stroke="#ffffff" stroke-opacity=".07" stroke-width="1"/><line x1="288" y1="520" x2="324" y2="278" stroke="#ffffff" stroke-opacity=".07" stroke-width="1"/><line x1="384" y1="520" x2="324" y2="278" stroke="#ffffff" stroke-opacity=".07" stroke-width="1"/><line x1="480" y1="520" x2="324" y2="278" stroke="#ffffff" stroke-opacity=".07" stroke-width="1"/><line x1="576" y1="520" x2="324" y2="278" stroke="#ffffff" stroke-opacity=".07" stroke-width="1"/><line x1="672" y1="520" x2="324" y2="278" stroke="#ffffff" stroke-opacity=".07" stroke-width="1"/><line x1="768" y1="520" x2="324" y2="278" stroke="#ffffff" stroke-opacity=".07" stroke-width="1"/><line x1="864" y1="520" x2="324" y2="278" stroke="#ffffff" stroke-opacity=".07" stroke-width="1"/><line x1="0" y1="282" x2="800" y2="282" stroke="#ffffff" stroke-opacity=".055" stroke-width="1"/><line x1="0" y1="294" x2="800" y2="294" stroke="#ffffff" stroke-opacity=".055" stroke-width="1"/><line x1="0" y1="310" x2="800" y2="310" stroke="#ffffff" stroke-opacity=".055" stroke-width="1"/><line x1="0" y1="332" x2="800" y2="332" stroke="#ffffff" stroke-opacity=".055" stroke-width="1"/><line x1="0" y1="361" x2="800" y2="361" stroke="#ffffff" stroke-opacity=".055" stroke-width="1"/><line x1="0" y1="400" x2="800" y2="400" stroke="#ffffff" stroke-opacity=".055" stroke-width="1"/><line x1="0" y1="452" x2="800" y2="452" stroke="#ffffff" stroke-opacity=".055" stroke-width="1"/><line x1="0" y1="522" x2="800" y2="522" stroke="#ffffff" stroke-opacity=".055" stroke-width="1"/><line x1="0" y1="282" x2="800" y2="282" stroke="#ffffff" stroke-opacity=".14" stroke-width="1.2"/><rect x="114" y="316" width="250" height="78" fill="#ffffff" fill-opacity=".22"/><rect x="114" y="316" width="250" height="78" fill="none" stroke="#ffffff" stroke-opacity=".18" stroke-width="1"/><rect x="516" y="288" width="180" height="44" fill="#ffffff" fill-opacity=".16"/><rect x="516" y="288" width="180" height="44" fill="none" stroke="#ffffff" stroke-opacity=".18" stroke-width="1"/><rect x="588" y="186" width="22" height="96" fill="#ffffff" fill-opacity=".16"/><rect x="588" y="186" width="22" height="96" fill="none" stroke="#ffffff" stroke-opacity=".18" stroke-width="1"/><rect x="0" y="512" width="800" height="8" fill="#B0637E" fill-opacity=".9"/><circle cx="324" cy="278" r="3" fill="#B0637E"/><rect width="800" height="520" fill="url(#h4)"/><g font-family="monospace" font-size="13" fill="#ffffff" fill-opacity=".45" letter-spacing="2"><text x="22" y="34">SPX · SALA PRIVATIVA</text><text x="22" y="496">REF 05/08</text></g></svg>