<svg xmlns="http://www.w3.org/2000/svg" viewBox="0 0 800 520" role="img" aria-label="Render de obra SPX"><defs><linearGradient id="g8" x1="0" y1="0" x2=".7" y2="1"><stop offset="0" stop-color="#26313D"/><stop offset="1" stop-color="#10141A"/></linearGradient><linearGradient id="l8" x1="0" y1="0" x2="0" y2="1"><stop offset="0" stop-color="#7FA6C9" stop-opacity=".5"/><stop offset="1" stop-color="#7FA6C9" stop-opacity="0"/></linearGradient><pattern id="h8" width="10" height="10" patternTransform="rotate(25)" patternUnits="userSpaceOnUse"><line x1="0" y1="0" x2="0" y2="10" stroke="#ffffff" stroke-opacity=".04" stroke-width="3.2"/></pattern></defs><rect width="800" height="520" fill="url(#g8)"/><rect x="76" y="84" width="184" height="200" fill="url(#l8)"/><line x1="122" y1="84" x2="122" y2="284" stroke="#7FA6C9" stroke-opacity=".26" stroke-width="1.4"/><line x1="168" y1="84" x2="168" y2="284" stroke="#7FA6C9" stroke-opacity=".26" stroke-width="1.4"/><line x1="214" y1="84" x2="214" y2="284" stroke="#7FA6C9" stroke-opacity=".26" stroke-width="1.4"/><line x1="-576" y1="520" x2="348" y2="306" stroke="#ffffff" stroke-opacity=".065" stroke-width="1"/><line x1="-480" y1="520" x2="348" y2="306" stroke="#ffffff" stroke-opacity=".065" stroke-width="1"/><line x1="-384" y1="520" x2="348" y2="306" stroke="#ffffff" stroke-opacity=".065" stroke-width="1"/><line x1="-288" y1="520" x2="348" y2="306" stroke="#ffffff" stroke-opacity=".065" stroke-width="1"/><line x1="-192" y1="520" x2="348" y2="306" stroke="#ffffff" stroke-opacity=".065" stroke-width="1"/><line x1="-96" y1="520" x2="348" y2="306" stroke="#ffffff" stroke-opacity=".065" stroke-width="1"/><line x1="0" y1="520" x2="348" y2="306" stroke="#ffffff" stroke-opacity=".065" stroke-width="1"/><line x1="96" y1="520" x2="348" y2="306" stroke="#ffffff" stroke-opacity=".065" stroke-width="1"/><line x1="192" y1="520" x2="348" y2="306" stroke="#ffffff" stroke-opacity=".065" stroke-width="1"/><line x1="288" y1="520" x2="348" y2="306" stroke="#ffffff" stroke-opacity=".065" stroke-width="1"/><line x1="384" y1="520" x2="348" y2="306" stroke="#ffffff" stroke-opacity=".065" stroke-width="1"/><line x1="480" y1="520" x2="348" y2="306" stroke="#ffffff" stroke-opacity=".065" stroke-width="1"/><line x1="576" y1="520" x2="348" y2="306" stroke="#ffffff" stroke-opacity=".065" stroke-width="1"/><line x1="672" y1="520" x2="348" y2="306" stroke="#ffffff" stroke-opacity=".065" stroke-width="1"/><line x1="768" y1="520" x2="348" y2="306" stroke="#ffffff" stroke-opacity=".065" stroke-width="1"/><line x1="864" y1="520" x2="348" y2="306" stroke="#ffffff" stroke-opacity=".065" stroke-width="1"/><line x1="0" y1="274" x2="800" y2="274" stroke="#ffffff" stroke-opacity=".05" stroke-width="1"/><line x1="0" y1="286" x2="800" y2="286" stroke="#ffffff" stroke-opacity=".05" stroke-width="1"/><line x1="0" y1="302" x2="800" y2="302" stroke="#ffffff" stroke-opacity=".05" stroke-width="1"/><line x1="0" y1="324" x2="800" y2="324" stroke="#ffffff" stroke-opacity=".05" stroke-width="1"/><line x1="0" y1="353" x2="800" y2="353" stroke="#ffffff" stroke-opacity=".05" stroke-width="1"/><line x1="0" y1="392" x2="800" y2="392" stroke="#ffffff" stroke-opacity=".05" stroke-width="1"/><line x1="0" y1="444" x2="800" y2="444" stroke="#ffffff" stroke-opacity=".05" stroke-width="1"/><line x1="0" y1="514" x2="800" y2="514" stroke="#ffffff" stroke-opacity=".05" stroke-width="1"/><line x1="0" y1="274" x2="800" y2="274" stroke="#ffffff" stroke-opacity=".13" stroke-width="1.2"/><rect x="158" y="308" width="250" height="78" fill="#ffffff" fill-opacity=".2"/><rect x="158" y="308" width="250" height="78" fill="none" stroke="#ffffff" stroke-opacity=".16" stroke-width="1"/><rect x="492" y="280" width="180" height="44" fill="#ffffff" fill-opacity=".15"/><rect x="492" y="280" width="180" height="44" fill="none" stroke="#ffffff" stroke-opacity=".16" stroke-width="1"/><rect x="566" y="178" width="22" height="96" fill="#ffffff" fill-opacity=".15"/><rect x="566" y="178" width="22" height="96" fill="none" stroke="#ffffff" stroke-opacity=".16" stroke-width="1"/><rect x="0" y="512" width="800" height="8" fill="#7FA6C9" fill-opacity=".85"/><circle cx="348" cy="306" r="3" fill="#7FA6C9"/><rect width="800" height="520" fill="url(#h8)"/><g font-family="monospace" font-size="13" fill="#ffffff" fill-opacity=".42" letter-spacing="2"><text x="22" y="34">SPX · VISTA SP</text><text x="22" y="496">FOTO 09/10 · A PUBLICAR</text></g></svg>