<svg xmlns="http://www.w3.org/2000/svg" viewBox="0 0 800 520" role="img" aria-label="Render de obra SPX"><defs><linearGradient id="g1" x1="0" y1="0" x2=".7" y2="1"><stop offset="0" stop-color="#2E2F33"/><stop offset="1" stop-color="#17181A"/></linearGradient><linearGradient id="l1" x1="0" y1="0" x2="0" y2="1"><stop offset="0" stop-color="#D5D1C8" stop-opacity=".55"/><stop offset="1" stop-color="#D5D1C8" stop-opacity="0"/></linearGradient><pattern id="h1" width="10" height="10" patternTransform="rotate(25)" patternUnits="userSpaceOnUse"><line x1="0" y1="0" x2="0" y2="10" stroke="#ffffff" stroke-opacity=".045" stroke-width="3.2"/></pattern></defs><rect width="800" height="520" fill="url(#g1)"/><rect x="157" y="73" width="203" height="200" fill="url(#l1)"/><line x1="208" y1="73" x2="208" y2="273" stroke="#D5D1C8" stroke-opacity=".28" stroke-width="1.4"/><line x1="258" y1="73" x2="258" y2="273" stroke="#D5D1C8" stroke-opacity=".28" stroke-width="1.4"/><line x1="309" y1="73" x2="309" y2="273" stroke="#D5D1C8" stroke-opacity=".28" stroke-width="1.4"/><line x1="-576" y1="520" x2="361" y2="287" stroke="#ffffff" stroke-opacity=".07" stroke-width="1"/><line x1="-480" y1="520" x2="361" y2="287" stroke="#ffffff" stroke-opacity=".07" stroke-width="1"/><line x1="-384" y1="520" x2="361" y2="287" stroke="#ffffff" stroke-opacity=".07" stroke-width="1"/><line x1="-288" y1="520" x2="361" y2="287" stroke="#ffffff" stroke-opacity=".07" stroke-width="1"/><line x1="-192" y1="520" x2="361" y2="287" stroke="#ffffff" stroke-opacity=".07" stroke-width="1"/><line x1="-96" y1="520" x2="361" y2="287" stroke="#ffffff" stroke-opacity=".07" stroke-width="1"/><line x1="0" y1="520" x2="361" y2="287" stroke="#ffffff" stroke-opacity=".07" stroke-width="1"/><line x1="96" y1="520" x2="361" y2="287" stroke="#ffffff" stroke-opacity=".07" stroke-width="1"/><line x1="192" y1="520" x2="361" y2="287" stroke="#ffffff" stroke-opacity=".07" stroke-width="1"/><line x1="288" y1="520" x2="361" y2="287" stroke="#ffffff" stroke-opacity=".07" stroke-width="1"/><line x1="384" y1="520" x2="361" y2="287" stroke="#ffffff" stroke-opacity=".07" stroke-width="1"/><line x1="480" y1="520" x2="361" y2="287" stroke="#ffffff" stroke-opacity=".07" stroke-width="1"/><line x1="576" y1="520" x2="361" y2="287" stroke="#ffffff" stroke-opacity=".07" stroke-width="1"/><line x1="672" y1="520" x2="361" y2="287" stroke="#ffffff" stroke-opacity=".07" stroke-width="1"/><line x1="768" y1="520" x2="361" y2="287" stroke="#ffffff" stroke-opacity=".07" stroke-width="1"/><line x1="864" y1="520" x2="361" y2="287" stroke="#ffffff" stroke-opacity=".07" stroke-width="1"/><line x1="0" y1="263" x2="800" y2="263" stroke="#ffffff" stroke-opacity=".055" stroke-width="1"/><line x1="0" y1="275" x2="800" y2="275" stroke="#ffffff" stroke-opacity=".055" stroke-width="1"/><line x1="0" y1="291" x2="800" y2="291" stroke="#ffffff" stroke-opacity=".055" stroke-width="1"/><line x1="0" y1="313" x2="800" y2="313" stroke="#ffffff" stroke-opacity=".055" stroke-width="1"/><line x1="0" y1="342" x2="800" y2="342" stroke="#ffffff" stroke-opacity=".055" stroke-width="1"/><line x1="0" y1="381" x2="800" y2="381" stroke="#ffffff" stroke-opacity=".055" stroke-width="1"/><line x1="0" y1="433" x2="800" y2="433" stroke="#ffffff" stroke-opacity=".055" stroke-width="1"/><line x1="0" y1="503" x2="800" y2="503" stroke="#ffffff" stroke-opacity=".055" stroke-width="1"/><line x1="0" y1="263" x2="800" y2="263" stroke="#ffffff" stroke-opacity=".14" stroke-width="1.2"/><rect x="111" y="297" width="250" height="78" fill="#ffffff" fill-opacity=".22"/><rect x="111" y="297" width="250" height="78" fill="none" stroke="#ffffff" stroke-opacity=".18" stroke-width="1"/><rect x="429" y="269" width="180" height="44" fill="#ffffff" fill-opacity=".16"/><rect x="429" y="269" width="180" height="44" fill="none" stroke="#ffffff" stroke-opacity=".18" stroke-width="1"/><rect x="537" y="167" width="22" height="96" fill="#ffffff" fill-opacity=".16"/><rect x="537" y="167" width="22" height="96" fill="none" stroke="#ffffff" stroke-opacity=".18" stroke-width="1"/><rect x="0" y="512" width="800" height="8" fill="#D5D1C8" fill-opacity=".9"/><circle cx="361" cy="287" r="3" fill="#D5D1C8"/><rect width="800" height="520" fill="url(#h1)"/><g font-family="monospace" font-size="13" fill="#ffffff" fill-opacity=".45" letter-spacing="2"><text x="22" y="34">SPX · RECEPCAO</text><text x="22" y="496">REF 02/08</text></g></svg>