<svg xmlns="http://www.w3.org/2000/svg" viewBox="0 0 800 520" role="img" aria-label="Render de obra SPX"><defs><linearGradient id="g0" x1="0" y1="0" x2=".7" y2="1"><stop offset="0" stop-color="#17384A"/><stop offset="1" stop-color="#0E2230"/></linearGradient><linearGradient id="l0" x1="0" y1="0" x2="0" y2="1"><stop offset="0" stop-color="#2E90B8" stop-opacity=".55"/><stop offset="1" stop-color="#2E90B8" stop-opacity="0"/></linearGradient><pattern id="h0" width="10" height="10" patternTransform="rotate(25)" patternUnits="userSpaceOnUse"><line x1="0" y1="0" x2="0" y2="10" stroke="#ffffff" stroke-opacity=".045" stroke-width="3.2"/></pattern></defs><rect width="800" height="520" fill="url(#g0)"/><rect x="60" y="50" width="150" height="200" fill="url(#l0)"/><line x1="98" y1="50" x2="98" y2="250" stroke="#2E90B8" stroke-opacity=".28" stroke-width="1.4"/><line x1="135" y1="50" x2="135" y2="250" stroke="#2E90B8" stroke-opacity=".28" stroke-width="1.4"/><line x1="172" y1="50" x2="172" y2="250" stroke="#2E90B8" stroke-opacity=".28" stroke-width="1.4"/><line x1="-576" y1="520" x2="300" y2="250" stroke="#ffffff" stroke-opacity=".07" stroke-width="1"/><line x1="-480" y1="520" x2="300" y2="250" stroke="#ffffff" stroke-opacity=".07" stroke-width="1"/><line x1="-384" y1="520" x2="300" y2="250" stroke="#ffffff" stroke-opacity=".07" stroke-width="1"/><line x1="-288" y1="520" x2="300" y2="250" stroke="#ffffff" stroke-opacity=".07" stroke-width="1"/><line x1="-192" y1="520" x2="300" y2="250" stroke="#ffffff" stroke-opacity=".07" stroke-width="1"/><line x1="-96" y1="520" x2="300" y2="250" stroke="#ffffff" stroke-opacity=".07" stroke-width="1"/><line x1="0" y1="520" x2="300" y2="250" stroke="#ffffff" stroke-opacity=".07" stroke-width="1"/><line x1="96" y1="520" x2="300" y2="250" stroke="#ffffff" stroke-opacity=".07" stroke-width="1"/><line x1="192" y1="520" x2="300" y2="250" stroke="#ffffff" stroke-opacity=".07" stroke-width="1"/><line x1="288" y1="520" x2="300" y2="250" stroke="#ffffff" stroke-opacity=".07" stroke-width="1"/><line x1="384" y1="520" x2="300" y2="250" stroke="#ffffff" stroke-opacity=".07" stroke-width="1"/><line x1="480" y1="520" x2="300" y2="250" stroke="#ffffff" stroke-opacity=".07" stroke-width="1"/><line x1="576" y1="520" x2="300" y2="250" stroke="#ffffff" stroke-opacity=".07" stroke-width="1"/><line x1="672" y1="520" x2="300" y2="250" stroke="#ffffff" stroke-opacity=".07" stroke-width="1"/><line x1="768" y1="520" x2="300" y2="250" stroke="#ffffff" stroke-opacity=".07" stroke-width="1"/><line x1="864" y1="520" x2="300" y2="250" stroke="#ffffff" stroke-opacity=".07" stroke-width="1"/><line x1="0" y1="240" x2="800" y2="240" stroke="#ffffff" stroke-opacity=".055" stroke-width="1"/><line x1="0" y1="252" x2="800" y2="252" stroke="#ffffff" stroke-opacity=".055" stroke-width="1"/><line x1="0" y1="268" x2="800" y2="268" stroke="#ffffff" stroke-opacity=".055" stroke-width="1"/><line x1="0" y1="290" x2="800" y2="290" stroke="#ffffff" stroke-opacity=".055" stroke-width="1"/><line x1="0" y1="319" x2="800" y2="319" stroke="#ffffff" stroke-opacity=".055" stroke-width="1"/><line x1="0" y1="358" x2="800" y2="358" stroke="#ffffff" stroke-opacity=".055" stroke-width="1"/><line x1="0" y1="410" x2="800" y2="410" stroke="#ffffff" stroke-opacity=".055" stroke-width="1"/><line x1="0" y1="480" x2="800" y2="480" stroke="#ffffff" stroke-opacity=".055" stroke-width="1"/><line x1="0" y1="240" x2="800" y2="240" stroke="#ffffff" stroke-opacity=".14" stroke-width="1.2"/><rect x="70" y="274" width="250" height="78" fill="#ffffff" fill-opacity=".22"/><rect x="70" y="274" width="250" height="78" fill="none" stroke="#ffffff" stroke-opacity=".18" stroke-width="1"/><rect x="400" y="246" width="180" height="44" fill="#ffffff" fill-opacity=".16"/><rect x="400" y="246" width="180" height="44" fill="none" stroke="#ffffff" stroke-opacity=".18" stroke-width="1"/><rect x="520" y="144" width="22" height="96" fill="#ffffff" fill-opacity=".16"/><rect x="520" y="144" width="22" height="96" fill="none" stroke="#ffffff" stroke-opacity=".18" stroke-width="1"/><rect x="0" y="512" width="800" height="8" fill="#2E90B8" fill-opacity=".9"/><circle cx="300" cy="250" r="3" fill="#2E90B8"/><rect width="800" height="520" fill="url(#h0)"/><g font-family="monospace" font-size="13" fill="#ffffff" fill-opacity=".45" letter-spacing="2"><text x="22" y="34">SPX · SALA DE REUNIAO</text><text x="22" y="496">REF 01/08</text></g></svg>