<svg xmlns="http://www.w3.org/2000/svg" viewBox="0 0 800 520" role="img" aria-label="Render de obra SPX"><defs><linearGradient id="g13" x1="0" y1="0" x2=".7" y2="1"><stop offset="0" stop-color="#3A2C1D"/><stop offset="1" stop-color="#1B140D"/></linearGradient><linearGradient id="l13" x1="0" y1="0" x2="0" y2="1"><stop offset="0" stop-color="#D9B478" stop-opacity=".5"/><stop offset="1" stop-color="#D9B478" stop-opacity="0"/></linearGradient><pattern id="h13" width="10" height="10" patternTransform="rotate(25)" patternUnits="userSpaceOnUse"><line x1="0" y1="0" x2="0" y2="10" stroke="#ffffff" stroke-opacity=".04" stroke-width="3.2"/></pattern></defs><rect width="800" height="520" fill="url(#g13)"/><rect x="181" y="99" width="189" height="200" fill="url(#l13)"/><line x1="228" y1="99" x2="228" y2="299" stroke="#D9B478" stroke-opacity=".26" stroke-width="1.4"/><line x1="276" y1="99" x2="276" y2="299" stroke="#D9B478" stroke-opacity=".26" stroke-width="1.4"/><line x1="323" y1="99" x2="323" y2="299" stroke="#D9B478" stroke-opacity=".26" stroke-width="1.4"/><line x1="-576" y1="520" x2="433" y2="251" stroke="#ffffff" stroke-opacity=".065" stroke-width="1"/><line x1="-480" y1="520" x2="433" y2="251" stroke="#ffffff" stroke-opacity=".065" stroke-width="1"/><line x1="-384" y1="520" x2="433" y2="251" stroke="#ffffff" stroke-opacity=".065" stroke-width="1"/><line x1="-288" y1="520" x2="433" y2="251" stroke="#ffffff" stroke-opacity=".065" stroke-width="1"/><line x1="-192" y1="520" x2="433" y2="251" stroke="#ffffff" stroke-opacity=".065" stroke-width="1"/><line x1="-96" y1="520" x2="433" y2="251" stroke="#ffffff" stroke-opacity=".065" stroke-width="1"/><line x1="0" y1="520" x2="433" y2="251" stroke="#ffffff" stroke-opacity=".065" stroke-width="1"/><line x1="96" y1="520" x2="433" y2="251" stroke="#ffffff" stroke-opacity=".065" stroke-width="1"/><line x1="192" y1="520" x2="433" y2="251" stroke="#ffffff" stroke-opacity=".065" stroke-width="1"/><line x1="288" y1="520" x2="433" y2="251" stroke="#ffffff" stroke-opacity=".065" stroke-width="1"/><line x1="384" y1="520" x2="433" y2="251" stroke="#ffffff" stroke-opacity=".065" stroke-width="1"/><line x1="480" y1="520" x2="433" y2="251" stroke="#ffffff" stroke-opacity=".065" stroke-width="1"/><line x1="576" y1="520" x2="433" y2="251" stroke="#ffffff" stroke-opacity=".065" stroke-width="1"/><line x1="672" y1="520" x2="433" y2="251" stroke="#ffffff" stroke-opacity=".065" stroke-width="1"/><line x1="768" y1="520" x2="433" y2="251" stroke="#ffffff" stroke-opacity=".065" stroke-width="1"/><line x1="864" y1="520" x2="433" y2="251" stroke="#ffffff" stroke-opacity=".065" stroke-width="1"/><line x1="0" y1="289" x2="800" y2="289" stroke="#ffffff" stroke-opacity=".05" stroke-width="1"/><line x1="0" y1="301" x2="800" y2="301" stroke="#ffffff" stroke-opacity=".05" stroke-width="1"/><line x1="0" y1="317" x2="800" y2="317" stroke="#ffffff" stroke-opacity=".05" stroke-width="1"/><line x1="0" y1="339" x2="800" y2="339" stroke="#ffffff" stroke-opacity=".05" stroke-width="1"/><line x1="0" y1="368" x2="800" y2="368" stroke="#ffffff" stroke-opacity=".05" stroke-width="1"/><line x1="0" y1="407" x2="800" y2="407" stroke="#ffffff" stroke-opacity=".05" stroke-width="1"/><line x1="0" y1="459" x2="800" y2="459" stroke="#ffffff" stroke-opacity=".05" stroke-width="1"/><line x1="0" y1="529" x2="800" y2="529" stroke="#ffffff" stroke-opacity=".05" stroke-width="1"/><line x1="0" y1="289" x2="800" y2="289" stroke="#ffffff" stroke-opacity=".13" stroke-width="1.2"/><rect x="123" y="323" width="250" height="78" fill="#ffffff" fill-opacity=".2"/><rect x="123" y="323" width="250" height="78" fill="none" stroke="#ffffff" stroke-opacity=".16" stroke-width="1"/><rect x="497" y="295" width="180" height="44" fill="#ffffff" fill-opacity=".15"/><rect x="497" y="295" width="180" height="44" fill="none" stroke="#ffffff" stroke-opacity=".16" stroke-width="1"/><rect x="561" y="193" width="22" height="96" fill="#ffffff" fill-opacity=".15"/><rect x="561" y="193" width="22" height="96" fill="none" stroke="#ffffff" stroke-opacity=".16" stroke-width="1"/><rect x="0" y="512" width="800" height="8" fill="#D9B478" fill-opacity=".85"/><circle cx="433" cy="251" r="3" fill="#D9B478"/><rect width="800" height="520" fill="url(#h13)"/><g font-family="monospace" font-size="13" fill="#ffffff" fill-opacity=".42" letter-spacing="2"><text x="22" y="34">SPX · ESCRITORIO</text></g></svg>