<svg xmlns="http://www.w3.org/2000/svg" viewBox="0 0 800 520" role="img" aria-label="Render de obra SPX"><defs><linearGradient id="g6" x1="0" y1="0" x2=".7" y2="1"><stop offset="0" stop-color="#4E2C1C"/><stop offset="1" stop-color="#231409"/></linearGradient><linearGradient id="l6" x1="0" y1="0" x2="0" y2="1"><stop offset="0" stop-color="#D9A87E" stop-opacity=".5"/><stop offset="1" stop-color="#D9A87E" stop-opacity="0"/></linearGradient><pattern id="h6" width="10" height="10" patternTransform="rotate(25)" patternUnits="userSpaceOnUse"><line x1="0" y1="0" x2="0" y2="10" stroke="#ffffff" stroke-opacity=".04" stroke-width="3.2"/></pattern></defs><rect width="800" height="520" fill="url(#g6)"/><rect x="262" y="88" width="208" height="200" fill="url(#l6)"/><line x1="314" y1="88" x2="314" y2="288" stroke="#D9A87E" stroke-opacity=".26" stroke-width="1.4"/><line x1="366" y1="88" x2="366" y2="288" stroke="#D9A87E" stroke-opacity=".26" stroke-width="1.4"/><line x1="418" y1="88" x2="418" y2="288" stroke="#D9A87E" stroke-opacity=".26" stroke-width="1.4"/><line x1="-576" y1="520" x2="446" y2="292" stroke="#ffffff" stroke-opacity=".065" stroke-width="1"/><line x1="-480" y1="520" x2="446" y2="292" stroke="#ffffff" stroke-opacity=".065" stroke-width="1"/><line x1="-384" y1="520" x2="446" y2="292" stroke="#ffffff" stroke-opacity=".065" stroke-width="1"/><line x1="-288" y1="520" x2="446" y2="292" stroke="#ffffff" stroke-opacity=".065" stroke-width="1"/><line x1="-192" y1="520" x2="446" y2="292" stroke="#ffffff" stroke-opacity=".065" stroke-width="1"/><line x1="-96" y1="520" x2="446" y2="292" stroke="#ffffff" stroke-opacity=".065" stroke-width="1"/><line x1="0" y1="520" x2="446" y2="292" stroke="#ffffff" stroke-opacity=".065" stroke-width="1"/><line x1="96" y1="520" x2="446" y2="292" stroke="#ffffff" stroke-opacity=".065" stroke-width="1"/><line x1="192" y1="520" x2="446" y2="292" stroke="#ffffff" stroke-opacity=".065" stroke-width="1"/><line x1="288" y1="520" x2="446" y2="292" stroke="#ffffff" stroke-opacity=".065" stroke-width="1"/><line x1="384" y1="520" x2="446" y2="292" stroke="#ffffff" stroke-opacity=".065" stroke-width="1"/><line x1="480" y1="520" x2="446" y2="292" stroke="#ffffff" stroke-opacity=".065" stroke-width="1"/><line x1="576" y1="520" x2="446" y2="292" stroke="#ffffff" stroke-opacity=".065" stroke-width="1"/><line x1="672" y1="520" x2="446" y2="292" stroke="#ffffff" stroke-opacity=".065" stroke-width="1"/><line x1="768" y1="520" x2="446" y2="292" stroke="#ffffff" stroke-opacity=".065" stroke-width="1"/><line x1="864" y1="520" x2="446" y2="292" stroke="#ffffff" stroke-opacity=".065" stroke-width="1"/><line x1="0" y1="278" x2="800" y2="278" stroke="#ffffff" stroke-opacity=".05" stroke-width="1"/><line x1="0" y1="290" x2="800" y2="290" stroke="#ffffff" stroke-opacity=".05" stroke-width="1"/><line x1="0" y1="306" x2="800" y2="306" stroke="#ffffff" stroke-opacity=".05" stroke-width="1"/><line x1="0" y1="328" x2="800" y2="328" stroke="#ffffff" stroke-opacity=".05" stroke-width="1"/><line x1="0" y1="357" x2="800" y2="357" stroke="#ffffff" stroke-opacity=".05" stroke-width="1"/><line x1="0" y1="396" x2="800" y2="396" stroke="#ffffff" stroke-opacity=".05" stroke-width="1"/><line x1="0" y1="448" x2="800" y2="448" stroke="#ffffff" stroke-opacity=".05" stroke-width="1"/><line x1="0" y1="518" x2="800" y2="518" stroke="#ffffff" stroke-opacity=".05" stroke-width="1"/><line x1="0" y1="278" x2="800" y2="278" stroke="#ffffff" stroke-opacity=".13" stroke-width="1.2"/><rect x="76" y="312" width="250" height="78" fill="#ffffff" fill-opacity=".2"/><rect x="76" y="312" width="250" height="78" fill="none" stroke="#ffffff" stroke-opacity=".16" stroke-width="1"/><rect x="434" y="284" width="180" height="44" fill="#ffffff" fill-opacity=".15"/><rect x="434" y="284" width="180" height="44" fill="none" stroke="#ffffff" stroke-opacity=".16" stroke-width="1"/><rect x="532" y="182" width="22" height="96" fill="#ffffff" fill-opacity=".15"/><rect x="532" y="182" width="22" height="96" fill="none" stroke="#ffffff" stroke-opacity=".16" stroke-width="1"/><rect x="0" y="512" width="800" height="8" fill="#D9A87E" fill-opacity=".85"/><circle cx="446" cy="292" r="3" fill="#D9A87E"/><rect width="800" height="520" fill="url(#h6)"/><g font-family="monospace" font-size="13" fill="#ffffff" fill-opacity=".42" letter-spacing="2"><text x="22" y="34">SPX · LAVABO</text><text x="22" y="496">FOTO 07/10 · A PUBLICAR</text></g></svg>