<svg xmlns="http://www.w3.org/2000/svg" viewBox="0 0 800 520" role="img" aria-label="Render de obra SPX"><defs><linearGradient id="g3" x1="0" y1="0" x2=".7" y2="1"><stop offset="0" stop-color="#38352F"/><stop offset="1" stop-color="#1A1917"/></linearGradient><linearGradient id="l3" x1="0" y1="0" x2="0" y2="1"><stop offset="0" stop-color="#B9B2A6" stop-opacity=".5"/><stop offset="1" stop-color="#B9B2A6" stop-opacity="0"/></linearGradient><pattern id="h3" width="10" height="10" patternTransform="rotate(25)" patternUnits="userSpaceOnUse"><line x1="0" y1="0" x2="0" y2="10" stroke="#ffffff" stroke-opacity=".04" stroke-width="3.2"/></pattern></defs><rect width="800" height="520" fill="url(#g3)"/><rect x="351" y="69" width="179" height="200" fill="url(#l3)"/><line x1="396" y1="69" x2="396" y2="269" stroke="#B9B2A6" stroke-opacity=".26" stroke-width="1.4"/><line x1="440" y1="69" x2="440" y2="269" stroke="#B9B2A6" stroke-opacity=".26" stroke-width="1.4"/><line x1="485" y1="69" x2="485" y2="269" stroke="#B9B2A6" stroke-opacity=".26" stroke-width="1.4"/><line x1="-576" y1="520" x2="483" y2="301" stroke="#ffffff" stroke-opacity=".065" stroke-width="1"/><line x1="-480" y1="520" x2="483" y2="301" stroke="#ffffff" stroke-opacity=".065" stroke-width="1"/><line x1="-384" y1="520" x2="483" y2="301" stroke="#ffffff" stroke-opacity=".065" stroke-width="1"/><line x1="-288" y1="520" x2="483" y2="301" stroke="#ffffff" stroke-opacity=".065" stroke-width="1"/><line x1="-192" y1="520" x2="483" y2="301" stroke="#ffffff" stroke-opacity=".065" stroke-width="1"/><line x1="-96" y1="520" x2="483" y2="301" stroke="#ffffff" stroke-opacity=".065" stroke-width="1"/><line x1="0" y1="520" x2="483" y2="301" stroke="#ffffff" stroke-opacity=".065" stroke-width="1"/><line x1="96" y1="520" x2="483" y2="301" stroke="#ffffff" stroke-opacity=".065" stroke-width="1"/><line x1="192" y1="520" x2="483" y2="301" stroke="#ffffff" stroke-opacity=".065" stroke-width="1"/><line x1="288" y1="520" x2="483" y2="301" stroke="#ffffff" stroke-opacity=".065" stroke-width="1"/><line x1="384" y1="520" x2="483" y2="301" stroke="#ffffff" stroke-opacity=".065" stroke-width="1"/><line x1="480" y1="520" x2="483" y2="301" stroke="#ffffff" stroke-opacity=".065" stroke-width="1"/><line x1="576" y1="520" x2="483" y2="301" stroke="#ffffff" stroke-opacity=".065" stroke-width="1"/><line x1="672" y1="520" x2="483" y2="301" stroke="#ffffff" stroke-opacity=".065" stroke-width="1"/><line x1="768" y1="520" x2="483" y2="301" stroke="#ffffff" stroke-opacity=".065" stroke-width="1"/><line x1="864" y1="520" x2="483" y2="301" stroke="#ffffff" stroke-opacity=".065" stroke-width="1"/><line x1="0" y1="259" x2="800" y2="259" stroke="#ffffff" stroke-opacity=".05" stroke-width="1"/><line x1="0" y1="271" x2="800" y2="271" stroke="#ffffff" stroke-opacity=".05" stroke-width="1"/><line x1="0" y1="287" x2="800" y2="287" stroke="#ffffff" stroke-opacity=".05" stroke-width="1"/><line x1="0" y1="309" x2="800" y2="309" stroke="#ffffff" stroke-opacity=".05" stroke-width="1"/><line x1="0" y1="338" x2="800" y2="338" stroke="#ffffff" stroke-opacity=".05" stroke-width="1"/><line x1="0" y1="377" x2="800" y2="377" stroke="#ffffff" stroke-opacity=".05" stroke-width="1"/><line x1="0" y1="429" x2="800" y2="429" stroke="#ffffff" stroke-opacity=".05" stroke-width="1"/><line x1="0" y1="499" x2="800" y2="499" stroke="#ffffff" stroke-opacity=".05" stroke-width="1"/><line x1="0" y1="259" x2="800" y2="259" stroke="#ffffff" stroke-opacity=".13" stroke-width="1.2"/><rect x="73" y="293" width="250" height="78" fill="#ffffff" fill-opacity=".2"/><rect x="73" y="293" width="250" height="78" fill="none" stroke="#ffffff" stroke-opacity=".16" stroke-width="1"/><rect x="487" y="265" width="180" height="44" fill="#ffffff" fill-opacity=".15"/><rect x="487" y="265" width="180" height="44" fill="none" stroke="#ffffff" stroke-opacity=".16" stroke-width="1"/><rect x="571" y="163" width="22" height="96" fill="#ffffff" fill-opacity=".15"/><rect x="571" y="163" width="22" height="96" fill="none" stroke="#ffffff" stroke-opacity=".16" stroke-width="1"/><rect x="0" y="512" width="800" height="8" fill="#B9B2A6" fill-opacity=".85"/><circle cx="483" cy="301" r="3" fill="#B9B2A6"/><rect width="800" height="520" fill="url(#h3)"/><g font-family="monospace" font-size="13" fill="#ffffff" fill-opacity=".42" letter-spacing="2"><text x="22" y="34">SPX · LOUNGE</text><text x="22" y="496">FOTO 04/10 · A PUBLICAR</text></g></svg>